# xmcd
#
# Track frame offsets: 
#        150
#        17234
#        35581
#        52941
#        69500
#        84294
#        101768
#        115834
#        128028
#        144409
#        162044
#        178677
#
# Disc length: 2572 seconds
#
# Revision: 0
# Processed by: cddbd v1.5.2PL0 Copyright (c) Steve Scherf et al.
# Submitted via: ExactAudioCopyFreeDBPlugin 1.0
#
DISCID=970a0a0c
DTITLE=Ruckus Blues - Parkside Stomp
DYEAR=2004
DGENRE=Blues
TTITLE0=I've Heard All Your Lies
TTITLE1=I Ain't About To Love You
TTITLE2=Will You
TTITLE3=Honey On My Toast And Bread
TTITLE4=Stalking Blues
TTITLE5=Blues In My Pocket
TTITLE6=Gunning For You
TTITLE7=Message Called Hate
TTITLE8=Too Old The Habit
TTITLE9=Shooting From The Hip
TTITLE10=Putting That Pudding Away
TTITLE11=Give Me Some Of That
EXTD=
EXTT0=
EXTT1=
EXTT2=
EXTT3=
EXTT4=
EXTT5=
EXTT6=
EXTT7=
EXTT8=
EXTT9=
EXTT10=
EXTT11=
PLAYORDER=
